<?xml version="1.0" encoding="UTF-8" standalone="no"?>
<svg
   xmlns:dc="http://purl.org/dc/elements/1.1/"
   xmlns:cc="http://creativecommons.org/ns#"
   xmlns:rdf="http://www.w3.org/1999/02/22-rdf-syntax-ns#"
   xmlns:svg="http://www.w3.org/2000/svg"
   xmlns="http://www.w3.org/2000/svg"
   xmlns:sodipodi="http://sodipodi.sourceforge.net/DTD/sodipodi-0.dtd"
   xmlns:inkscape="http://www.inkscape.org/namespaces/inkscape"
   version="1.1"
   x="0px"
   y="0px"
   viewBox="0 0 1740 1739.9999"
   xml:space="preserve"
   id="svg189"
   sodipodi:docname="Firefox Stacked.svg"
   width="1740"
   height="1740"
   inkscape:version="1.0.1 (3bc2e813f5, 2020-09-07)"><metadata
   id="metadata195"><rdf:RDF><cc:Work
       rdf:about=""><dc:format>image/svg+xml</dc:format><dc:type
         rdf:resource="http://purl.org/dc/dcmitype/StillImage" /><dc:title></dc:title></cc:Work></rdf:RDF></metadata><defs
   id="defs193" /><sodipodi:namedview
   pagecolor="#ffffff"
   bordercolor="#666666"
   borderopacity="1"
   objecttolerance="10"
   gridtolerance="10"
   guidetolerance="10"
   inkscape:pageopacity="0"
   inkscape:pageshadow="2"
   inkscape:window-width="1920"
   inkscape:window-height="1021"
   id="namedview191"
   showgrid="false"
   fit-margin-top="0.05249"
   fit-margin-left="43.03949"
   fit-margin-right="43.03949"
   fit-margin-bottom="40"
   lock-margins="false"
   inkscape:zoom="0.33412983"
   inkscape:cx="869.47037"
   inkscape:cy="965.6246"
   inkscape:window-x="0"
   inkscape:window-y="31"
   inkscape:window-maximized="1"
   inkscape:current-layer="g181" />
<g
   id="LiveType"
   style="display:none"
   transform="translate(-58.529629,-50.44751)">
</g>
<g
   id="Outlined"
   transform="translate(-58.529629,-50.44751)">
	<g
   id="g177">
		<g
   id="g50">
			
				<radialGradient
   id="SVGID_1_"
   cx="321.9653"
   cy="-119.88482"
   r="1876.7874"
   fx="389.09302"
   fy="-153.06329"
   gradientTransform="translate(1258.4413,532.88959)"
   gradientUnits="userSpaceOnUse">
				<stop
   offset="0"
   style="stop-color:#FFF44F"
   id="stop3" />
				<stop
   offset="0.2948518"
   style="stop-color:#FF980E"
   id="stop5" />
				<stop
   offset="0.4315208"
   style="stop-color:#FF5D36"
   id="stop7" />
				<stop
   offset="0.5302083"
   style="stop-color:#FF3750"
   id="stop9" />
				<stop
   offset="0.7493189"
   style="stop-color:#F5156C"
   id="stop11" />
				<stop
   offset="0.7647903"
   style="stop-color:#F1136E"
   id="stop13" />
				<stop
   offset="0.8800957"
   style="stop-color:#DA057A"
   id="stop15" />
				<stop
   offset="0.9527844"
   style="stop-color:#D2007F"
   id="stop17" />
			</radialGradient>
			<path
   style="fill:url(#SVGID_1_)"
   d="M 1588.9476,424.26913 C 1439.4781,227.89421 1206.4467,105.50769 961.35773,100.6283 769.36273,96.806107 636.70404,154.36476 561.64685,200.63835 662.06891,142.5378 807.37231,109.58444 934.59747,111.20563 c 327.28973,4.16995 678.77573,226.4971 730.98103,627.28113 59.9271,460.06454 -261.254,844.03914 -713.11347,845.19834 -497.10666,1.2753 -799.45099,-437.8433 -720.43061,-832.25651 3.94603,-19.6955 1.97625,-38.85162 8.55483,-57.46631 3.76581,-69.35028 30.0256,-178.05359 86.67374,-289.12387 C 270.02574,434.3812 197.13264,527.854 161.14232,614.43762 109.25774,739.25873 90.972694,888.52826 107.43277,1030.5441 c 1.23914,10.69 2.3615,21.3492 3.76283,31.9482 66.57974,390.5934 406.64737,687.9544 816.21436,687.9544 457.33534,0 828.07794,-370.7426 828.07794,-828.07518 0,-186.99219 -62.005,-359.48559 -166.5403,-498.10239 z m -1310.65073,71.91193 -0.003,0.003 z"
   id="path20" />
			<g
   style="opacity:0.67"
   id="g29">
				
					<radialGradient
   id="SVGID_2_"
   cx="-1019.8155"
   cy="-42.245525"
   r="1110.733"
   fx="-980.08752"
   fy="-61.881432"
   gradientTransform="translate(1258.4413,532.88959)"
   gradientUnits="userSpaceOnUse">
					<stop
   offset="0"
   style="stop-color:#B5007F"
   id="stop22" />
					<stop
   offset="1"
   style="stop-color:#F5156C;stop-opacity:0"
   id="stop24" />
				</radialGradient>
				<path
   style="fill:url(#SVGID_2_)"
   d="M 1588.9476,424.26913 C 1439.4781,227.89421 1206.4467,105.50769 961.35773,100.6283 769.36273,96.806107 636.70404,154.36476 561.64685,200.63835 662.06891,142.5378 807.37231,109.58444 934.59747,111.20563 c 327.28973,4.16995 678.77573,226.4971 730.98103,627.28113 59.9271,460.06454 -261.254,844.03914 -713.11347,845.19834 -497.10666,1.2753 -799.45099,-437.8433 -720.43061,-832.25651 3.94603,-19.6955 1.97625,-38.85162 8.55483,-57.46631 3.76581,-69.35028 30.0256,-178.05359 86.67374,-289.12387 C 270.02574,434.3812 197.13264,527.854 161.14232,614.43762 109.25774,739.25873 90.972694,888.52826 107.43277,1030.5441 c 1.23914,10.69 2.3615,21.3492 3.76283,31.9482 66.57974,390.5934 406.64737,687.9544 816.21436,687.9544 457.33534,0 828.07794,-370.7426 828.07794,-828.07518 0,-186.99219 -62.005,-359.48559 -166.5403,-498.10239 z m -1310.65073,71.91193 -0.003,0.003 z"
   id="path27" />
			</g>
			
				<radialGradient
   id="SVGID_3_"
   cx="482.40091"
   cy="-226.67476"
   r="2203.8347"
   fx="561.2262"
   fy="-265.63489"
   gradientTransform="translate(1258.4413,532.88959)"
   gradientUnits="userSpaceOnUse">
				<stop
   offset="0"
   style="stop-color:#FFDD00;stop-opacity:0.6"
   id="stop31" />
				<stop
   offset="0.0836672"
   style="stop-color:#FFD801;stop-opacity:0.524402"
   id="stop33" />
				<stop
   offset="0.1822441"
   style="stop-color:#FECA05;stop-opacity:0.4353322"
   id="stop35" />
				<stop
   offset="0.2883662"
   style="stop-color:#FEB20C;stop-opacity:0.3394448"
   id="stop37" />
				<stop
   offset="0.399791"
   style="stop-color:#FD9115;stop-opacity:0.2387661"
   id="stop39" />
				<stop
   offset="0.5154039"
   style="stop-color:#FB6621;stop-opacity:0.1343033"
   id="stop41" />
				<stop
   offset="0.6328723"
   style="stop-color:#F9332F;stop-opacity:0.028164"
   id="stop43" />
				<stop
   offset="0.6640424"
   style="stop-color:#F92433;stop-opacity:0"
   id="stop45" />
			</radialGradient>
			<path
   style="fill:url(#SVGID_3_)"
   d="M 1588.9476,424.26913 C 1439.4781,227.89421 1206.4467,105.50769 961.35773,100.6283 769.36273,96.806107 636.70404,154.36476 561.64685,200.63835 662.06891,142.5378 807.37231,109.58444 934.59747,111.20563 c 327.28973,4.16995 678.77573,226.4971 730.98103,627.28113 59.9271,460.06454 -261.254,844.03914 -713.11347,845.19834 -497.10666,1.2753 -799.45099,-437.8433 -720.43061,-832.25651 3.94603,-19.6955 1.97625,-38.85162 8.55483,-57.46631 3.76581,-69.35028 30.0256,-178.05359 86.67374,-289.12387 C 270.02574,434.3812 197.13264,527.854 161.14232,614.43762 109.25774,739.25873 90.972694,888.52826 107.43277,1030.5441 c 1.23914,10.69 2.3615,21.3492 3.76283,31.9482 66.57974,390.5934 406.64737,687.9544 816.21436,687.9544 457.33534,0 828.07794,-370.7426 828.07794,-828.07518 0,-186.99219 -62.005,-359.48559 -166.5403,-498.10239 z m -1310.65073,71.91193 -0.003,0.003 z"
   id="path48" />
		</g>
		<g
   id="g74">
			<radialGradient
   id="SVGID_4_"
   cx="975.76648"
   cy="1018.4619"
   r="2843.1211"
   gradientUnits="userSpaceOnUse">
				<stop
   offset="0.1528494"
   style="stop-color:#960E18"
   id="stop52" />
				<stop
   offset="0.2061304"
   style="stop-color:#CC2335;stop-opacity:0.5541388"
   id="stop54" />
				<stop
   offset="0.2494777"
   style="stop-color:#F13148;stop-opacity:0.1914039"
   id="stop56" />
				<stop
   offset="0.2723507"
   style="stop-color:#FF3750;stop-opacity:0"
   id="stop58" />
			</radialGradient>
			<path
   style="fill:url(#SVGID_4_)"
   d="M 1588.9476,424.26913 C 1439.4781,227.89421 1206.4467,105.50769 961.35773,100.6283 769.36273,96.806107 636.70404,154.36476 561.64685,200.63835 662.06891,142.5378 807.37231,109.58444 934.59747,111.20563 c 327.28973,4.16995 678.77573,226.4971 730.98103,627.28113 59.9271,460.06454 -261.254,844.03914 -713.11347,845.19834 -497.10666,1.2753 -799.45099,-437.8433 -720.43061,-832.25651 3.94603,-19.6955 1.97625,-38.85162 8.55483,-57.46631 3.76581,-69.35028 30.0256,-178.05359 86.67374,-289.12387 C 270.02574,434.3812 197.13264,527.854 161.14232,614.43762 109.25774,739.25873 90.972694,888.52826 107.43277,1030.5441 c 1.23914,10.69 2.3615,21.3492 3.76283,31.9482 66.57974,390.5934 406.64737,687.9544 816.21436,687.9544 457.33534,0 828.07794,-370.7426 828.07794,-828.07518 0,-186.99219 -62.005,-359.48559 -166.5403,-498.10239 z m -1310.65073,71.91193 -0.003,0.003 z"
   id="path61" />
			<radialGradient
   id="SVGID_5_"
   cx="760.61938"
   cy="982.71185"
   r="2843.1211"
   gradientUnits="userSpaceOnUse">
				<stop
   offset="0.1129055"
   style="stop-color:#960E18"
   id="stop63" />
				<stop
   offset="0.1893459"
   style="stop-color:#CC2335;stop-opacity:0.5541388"
   id="stop65" />
				<stop
   offset="0.2515348"
   style="stop-color:#F13148;stop-opacity:0.1914039"
   id="stop67" />
				<stop
   offset="0.2843499"
   style="stop-color:#FF3750;stop-opacity:0"
   id="stop69" />
			</radialGradient>
			<path
   style="fill:url(#SVGID_5_)"
   d="M 1588.9476,424.26913 C 1439.4781,227.89421 1206.4467,105.50769 961.35773,100.6283 769.36273,96.806107 636.70404,154.36476 561.64685,200.63835 662.06891,142.5378 807.37231,109.58444 934.59747,111.20563 c 327.28973,4.16995 678.77573,226.4971 730.98103,627.28113 59.9271,460.06454 -261.254,844.03914 -713.11347,845.19834 -497.10666,1.2753 -799.45099,-437.8433 -720.43061,-832.25651 3.94603,-19.6955 1.97625,-38.85162 8.55483,-57.46631 3.76581,-69.35028 30.0256,-178.05359 86.67374,-289.12387 C 270.02574,434.3812 197.13264,527.854 161.14232,614.43762 109.25774,739.25873 90.972694,888.52826 107.43277,1030.5441 c 1.23914,10.69 2.3615,21.3492 3.76283,31.9482 66.57974,390.5934 406.64737,687.9544 816.21436,687.9544 457.33534,0 828.07794,-370.7426 828.07794,-828.07518 0,-186.99219 -62.005,-359.48559 -166.5403,-498.10239 z m -1310.65073,71.91193 -0.003,0.003 z"
   id="path72" />
		</g>
		
			<linearGradient
   id="SVGID_6_"
   gradientUnits="userSpaceOnUse"
   x1="-209.3687"
   y1="-272.08087"
   x2="277.09613"
   y2="570.50092"
   gradientTransform="translate(1258.4413,532.88959)">
			<stop
   offset="0"
   style="stop-color:#FFBC04"
   id="stop76" />
			<stop
   offset="0.2596934"
   style="stop-color:#FFA202;stop-opacity:0.4886038"
   id="stop78" />
			<stop
   offset="0.5078125"
   style="stop-color:#FF8E00;stop-opacity:0"
   id="stop80" />
		</linearGradient>
		<path
   style="fill:url(#SVGID_6_)"
   d="m 1665.5785,738.48676 c 6.6175,50.80285 8.5693,100.76171 6.2297,149.45483 27.4208,-4.05847 54.8916,-7.73651 82.4156,-10.92206 -9.154,-169.48529 -69.2499,-325.41656 -165.2762,-452.7504 C 1439.4781,227.89421 1206.4467,105.50769 961.35773,100.6283 769.36273,96.806107 636.70404,154.36476 561.64685,200.63835 662.06891,142.5378 807.37231,109.58444 934.59747,111.20563 c 327.28973,4.16995 678.77573,226.4971 730.98103,627.28113 z"
   id="path83" />
		<g
   id="g113">
			
				<radialGradient
   id="SVGID_7_"
   cx="257.63312"
   cy="346.10947"
   r="1837.1556"
   fx="323.34329"
   fy="313.63162"
   gradientTransform="matrix(0.9588647,0,0,0.9588647,1293.9906,17.723545)"
   gradientUnits="userSpaceOnUse">
				<stop
   offset="0"
   style="stop-color:#FF980E"
   id="stop85" />
				<stop
   offset="0.295012"
   style="stop-color:#FF7139"
   id="stop87" />
				<stop
   offset="0.4846462"
   style="stop-color:#FF5B51"
   id="stop89" />
				<stop
   offset="0.6260016"
   style="stop-color:#FF4F5E"
   id="stop91" />
				<stop
   offset="0.73652"
   style="stop-color:#FF4055"
   id="stop93" />
				<stop
   offset="0.8428285"
   style="stop-color:#FF3750"
   id="stop95" />
			</radialGradient>
			<path
   style="fill:url(#SVGID_7_)"
   d="M 1685.7084,715.6062 C 1639.17,296.76025 1264.7471,108.49115 934.59747,111.20563 c -127.2312,1.04609 -272.52856,31.33217 -372.95062,89.43272 -46.90912,28.92012 -71.31412,53.41315 -73.59055,55.75279 2.66147,-2.20443 10.61655,-8.73825 23.81272,-17.77346 0.43201,-0.3019 0.86804,-0.59739 1.30108,-0.8978 0.37519,-0.25476 0.76728,-0.51596 1.1504,-0.77438 47.8695,-33.00563 101.89758,-56.97713 159.02899,-73.67922 87.25299,-25.50804 181.72259,-34.06886 272.55151,-31.79179 373.387,21.4808 636.8839,330.65698 646.0569,659.75622 7.5919,272.37559 -215.8816,489.59279 -473.4804,502.17399 C 931.13318,1302.5546 754.66028,1212.115 668.4118,1031.1855 649.22461,990.93543 635.15308,950.02448 627.81409,900.56891 586.95374,625.22272 772.29901,390.41132 942.26361,332.27859 850.55884,252.37299 620.81805,257.79297 449.82407,383.29031 326.68106,473.66849 246.79782,611.17676 220.3322,775.22925 c -20.17821,125.07873 -1.17406,255.15095 48.37895,371.32045 50.49225,118.3712 132.60825,222.7265 235.84442,299.5685 112.10422,83.4428 247.09659,131.9972 386.23337,142.5726 20.51917,1.5597 41.09802,2.3226 61.67609,2.3226 547.08967,0 784.47817,-414.2937 733.24337,-875.4072 z"
   id="path98" />
			
				<radialGradient
   id="SVGID_8_"
   cx="257.63312"
   cy="346.10947"
   r="1837.1556"
   fx="323.34329"
   fy="313.63162"
   gradientTransform="matrix(0.9588647,0,0,0.9588647,1293.9906,17.723545)"
   gradientUnits="userSpaceOnUse">
				<stop
   offset="0.0840745"
   style="stop-color:#FFDE08"
   id="stop100" />
				<stop
   offset="0.2081029"
   style="stop-color:#FFD609;stop-opacity:0.8320085"
   id="stop102" />
				<stop
   offset="0.4032703"
   style="stop-color:#FFBF0B;stop-opacity:0.5676619"
   id="stop104" />
				<stop
   offset="0.643689"
   style="stop-color:#FF9B0F;stop-opacity:0.2420242"
   id="stop106" />
				<stop
   offset="0.8223758"
   style="stop-color:#FF7B12;stop-opacity:0"
   id="stop108" />
			</radialGradient>
			<path
   style="fill:url(#SVGID_8_)"
   d="M 1685.7084,715.6062 C 1639.17,296.76025 1264.7471,108.49115 934.59747,111.20563 c -127.2312,1.04609 -272.52856,31.33217 -372.95062,89.43272 -46.90912,28.92012 -71.31412,53.41315 -73.59055,55.75279 2.66147,-2.20443 10.61655,-8.73825 23.81272,-17.77346 0.43201,-0.3019 0.86804,-0.59739 1.30108,-0.8978 0.37519,-0.25476 0.76728,-0.51596 1.1504,-0.77438 47.8695,-33.00563 101.89758,-56.97713 159.02899,-73.67922 87.25299,-25.50804 181.72259,-34.06886 272.55151,-31.79179 373.387,21.4808 636.8839,330.65698 646.0569,659.75622 7.5919,272.37559 -215.8816,489.59279 -473.4804,502.17399 C 931.13318,1302.5546 754.66028,1212.115 668.4118,1031.1855 649.22461,990.93543 635.15308,950.02448 627.81409,900.56891 586.95374,625.22272 772.29901,390.41132 942.26361,332.27859 850.55884,252.37299 620.81805,257.79297 449.82407,383.29031 326.68106,473.66849 246.79782,611.17676 220.3322,775.22925 c -20.17821,125.07873 -1.17406,255.15095 48.37895,371.32045 50.49225,118.3712 132.60825,222.7265 235.84442,299.5685 112.10422,83.4428 247.09659,131.9972 386.23337,142.5726 20.51917,1.5597 41.09802,2.3226 61.67609,2.3226 547.08967,0 784.47817,-414.2937 733.24337,-875.4072 z"
   id="path111" />
		</g>
		<g
   id="g133">
			
				<radialGradient
   id="SVGID_9_"
   cx="1134.0427"
   cy="897.6134"
   r="863.96179"
   gradientTransform="matrix(0.2472277,0.9689574,-1.011201,0.2580061,1761.3436,-432.81534)"
   gradientUnits="userSpaceOnUse">
				<stop
   offset="0.3633813"
   style="stop-color:#FF3750"
   id="stop115" />
				<stop
   offset="0.4111364"
   style="stop-color:#FF444B;stop-opacity:0.7894784"
   id="stop117" />
				<stop
   offset="0.5902234"
   style="stop-color:#FF7139;stop-opacity:0"
   id="stop119" />
			</radialGradient>
			<path
   style="opacity:0.53;fill:url(#SVGID_9_)"
   d="M 1685.7084,715.6062 C 1639.17,296.76025 1264.7471,108.49115 934.59747,111.20563 c -127.2312,1.04609 -272.52856,31.33217 -372.95062,89.43272 -46.90912,28.92012 -71.31412,53.41315 -73.59055,55.75279 2.66147,-2.20443 10.61655,-8.73825 23.81272,-17.77346 0.43201,-0.3019 0.86804,-0.59739 1.30108,-0.8978 0.37519,-0.25476 0.76728,-0.51596 1.1504,-0.77438 47.8695,-33.00563 101.89758,-56.97713 159.02899,-73.67922 87.25299,-25.50804 181.72259,-34.06886 272.55151,-31.79179 373.387,21.4808 636.8839,330.65698 646.0569,659.75622 7.5919,272.37559 -215.8816,489.59279 -473.4804,502.17399 C 931.13318,1302.5546 754.66028,1212.115 668.4118,1031.1855 649.22461,990.93543 635.15308,950.02448 627.81409,900.56891 586.95374,625.22272 772.29901,390.41132 942.26361,332.27859 850.55884,252.37299 620.81805,257.79297 449.82407,383.29031 326.68106,473.66849 246.79782,611.17676 220.3322,775.22925 c -20.17821,125.07873 -1.17406,255.15095 48.37895,371.32045 50.49225,118.3712 132.60825,222.7265 235.84442,299.5685 112.10422,83.4428 247.09659,131.9972 386.23337,142.5726 20.51917,1.5597 41.09802,2.3226 61.67609,2.3226 547.08967,0 784.47817,-414.2937 733.24337,-875.4072 z"
   id="path122" />
			
				<radialGradient
   id="SVGID_10_"
   cx="985.12354"
   cy="970.77887"
   r="863.96179"
   gradientTransform="matrix(0.2472277,0.9689574,-0.9698079,0.2474447,1683.0427,-223.97795)"
   gradientUnits="userSpaceOnUse">
				<stop
   offset="0.2158888"
   style="stop-color:#FF3750;stop-opacity:0.8"
   id="stop124" />
				<stop
   offset="0.2702094"
   style="stop-color:#FF444B;stop-opacity:0.6315827"
   id="stop126" />
				<stop
   offset="0.4739173"
   style="stop-color:#FF7139;stop-opacity:0"
   id="stop128" />
			</radialGradient>
			<path
   style="opacity:0.53;fill:url(#SVGID_10_)"
   d="M 1685.7084,715.6062 C 1639.17,296.76025 1264.7471,108.49115 934.59747,111.20563 c -127.2312,1.04609 -272.52856,31.33217 -372.95062,89.43272 -46.90912,28.92012 -71.31412,53.41315 -73.59055,55.75279 2.66147,-2.20443 10.61655,-8.73825 23.81272,-17.77346 0.43201,-0.3019 0.86804,-0.59739 1.30108,-0.8978 0.37519,-0.25476 0.76728,-0.51596 1.1504,-0.77438 47.8695,-33.00563 101.89758,-56.97713 159.02899,-73.67922 87.25299,-25.50804 181.72259,-34.06886 272.55151,-31.79179 373.387,21.4808 636.8839,330.65698 646.0569,659.75622 7.5919,272.37559 -215.8816,489.59279 -473.4804,502.17399 C 931.13318,1302.5546 754.66028,1212.115 668.4118,1031.1855 649.22461,990.93543 635.15308,950.02448 627.81409,900.56891 586.95374,625.22272 772.29901,390.41132 942.26361,332.27859 850.55884,252.37299 620.81805,257.79297 449.82407,383.29031 326.68106,473.66849 246.79782,611.17676 220.3322,775.22925 c -20.17821,125.07873 -1.17406,255.15095 48.37895,371.32045 50.49225,118.3712 132.60825,222.7265 235.84442,299.5685 112.10422,83.4428 247.09659,131.9972 386.23337,142.5726 20.51917,1.5597 41.09802,2.3226 61.67609,2.3226 547.08967,0 784.47817,-414.2937 733.24337,-875.4072 z"
   id="path131" />
		</g>
		<g
   id="g148">
			
				<radialGradient
   id="SVGID_11_"
   cx="624.28052"
   cy="138.58418"
   r="3105.1294"
   gradientTransform="matrix(0.9588647,0,0,0.9588647,1293.9906,17.723545)"
   gradientUnits="userSpaceOnUse">
				<stop
   offset="0.0535657"
   style="stop-color:#FFF44F"
   id="stop135" />
				<stop
   offset="0.4572717"
   style="stop-color:#FF980E"
   id="stop137" />
				<stop
   offset="0.5210502"
   style="stop-color:#FF8424"
   id="stop139" />
				<stop
   offset="0.587052"
   style="stop-color:#FF7634"
   id="stop141" />
				<stop
   offset="0.639343"
   style="stop-color:#FF7139"
   id="stop143" />
			</radialGradient>
			<path
   style="fill:url(#SVGID_11_)"
   d="m 1118.4775,1293.4047 c 353.5772,-21.4526 504.8637,-313.41971 514.3464,-520.68314 14.8076,-323.65369 -177.6923,-672.69196 -686.9229,-641.24707 -90.82892,-2.27707 -185.29852,6.28375 -272.55151,31.79179 -76.48786,23.33424 -129.61194,53.84233 -159.02899,73.67922 -0.38056,0.26249 -0.7707,0.51083 -1.15039,0.77438 -0.45728,0.31048 -0.85584,0.59289 -1.30109,0.8978 -7.91843,5.53486 -15.66116,11.326 -23.2226,17.36869 14.15802,-9.66368 189.77021,-113.12609 433.7547,-81.18196 292.29118,38.2688 559.61978,265.18097 559.61978,564.57459 0,230.35443 -178.4497,406.2158 -387.3863,393.6613 -310.42708,-18.6526 -388.59578,-336.21288 -227.18819,-473.4232 -43.54388,-9.35596 -125.37671,8.96484 -182.34997,93.94567 -51.12134,76.2522 -48.23566,194.07703 -16.68464,277.62283 86.24848,180.9294 262.84235,273.5784 450.0657,262.2191 z"
   id="path146" />
		</g>
		<g
   id="g157">
			
				<linearGradient
   id="SVGID_12_"
   gradientUnits="userSpaceOnUse"
   x1="1321.7657"
   y1="246.00212"
   x2="477.68073"
   y2="1708.0002">
				<stop
   offset="0"
   style="stop-color:#FFF44F;stop-opacity:0.8"
   id="stop150" />
				<stop
   offset="0.75"
   style="stop-color:#FFF44F;stop-opacity:0"
   id="stop152" />
			</linearGradient>
			<path
   style="fill:url(#SVGID_12_)"
   d="m 1588.9447,424.26938 c -22.1631,-29.12476 -46.3696,-56.40384 -71.9824,-82.13016 -20.5445,-21.74927 -42.5611,-41.78833 -65.6836,-60.3479 13.3227,11.64917 26.1474,23.87695 38.2178,36.90674 44.7802,48.33984 80.2441,105.44681 100.9277,167.96634 43.1909,130.5469 40.3711,293.9136 -42.085,422.22659 -98.2617,152.90401 -258.2299,228.38381 -431.1549,224.70701 -7.478,0.033 -14.9853,-0.1025 -22.5512,-0.5566 C 784.21069,1114.3866 706.03931,796.82678 867.45044,659.61853 823.90063,650.26184 742.07446,668.58337 685.09937,753.56262 633.97632,829.81506 636.86206,947.63983 668.41479,1031.1835 649.22534,990.93695 635.15552,950.02386 627.81665,900.57068 586.95483,625.224 772.30151,390.40952 942.26739,332.27716 850.56079,252.3736 620.82202,257.79352 449.82346,383.29034 c -99.63871,73.1287 -170.92533,177.13263 -208.54252,301.0694 5.52979,-69.53979 31.86036,-173.40457 85.97901,-279.52151 -57.23145,29.54223 -130.12941,123.0176 -166.1133,209.59719 -51.88477,124.823 -70.173345,274.09424 -53.71583,416.11088 1.24512,10.686 2.36573,21.3464 3.76465,31.9482 66.57716,390.5916 406.64804,687.953 816.21833,687.953 457.3317,0 828.0763,-370.7446 828.0763,-828.07628 0,-186.99097 -62.0068,-359.48365 -166.5454,-498.10184 z"
   id="path155" />
		</g>
		
			<linearGradient
   id="SVGID_13_"
   gradientUnits="userSpaceOnUse"
   x1="-205.41115"
   y1="605.31421"
   x2="-205.41115"
   y2="-421.97906"
   gradientTransform="translate(1258.4413,532.88959)">
			<stop
   offset="0"
   style="stop-color:#3A8EE6"
   id="stop159" />
			<stop
   offset="0.2359339"
   style="stop-color:#5C79F0"
   id="stop161" />
			<stop
   offset="0.6293269"
   style="stop-color:#9059FF"
   id="stop163" />
			<stop
   offset="1"
   style="stop-color:#C139E6"
   id="stop165" />
		</linearGradient>
		<path
   style="fill:url(#SVGID_13_)"
   d="M 1590.4224,486.66534 C 1569.7375,424.14349 1534.2744,367.0358 1489.4937,318.70013 1436.7346,261.75293 1371.0321,218.48007 1301.4785,184.7802 1242.3054,156.10977 1180.5089,133.48283 1116.6451,119.42223 1002.256,94.237778 882.24274,94.684395 774.17615,117.42895 656.68976,142.15607 553.37262,192.87863 488.0332,256.29123 c 48.99268,-29.70043 117.33448,-53.78818 166.03113,-66.06305 225.97992,-56.96239 474.81507,4.73531 644.46987,167.0513 34.1094,32.63382 64.695,69.14941 89.4938,109.36984 101.21,164.15073 91.6341,370.51621 12.7255,492.22641 -58.6201,90.41687 -184.1494,175.23877 -301.2728,174.31727 179.6837,9.4059 347.2464,-66.1815 448.8568,-224.29987 82.4584,-128.31555 85.2747,-291.68231 42.0849,-422.22779 z"
   id="path168" />
		
			<linearGradient
   id="SVGID_14_"
   gradientUnits="userSpaceOnUse"
   x1="-583.44946"
   y1="-426.68872"
   x2="250.12019"
   y2="406.88092"
   gradientTransform="translate(1258.4413,532.88959)">
			<stop
   offset="0.8054287"
   style="stop-color:#9059FF;stop-opacity:0"
   id="stop170" />
			<stop
   offset="1"
   style="stop-color:#6E008B;stop-opacity:0.5"
   id="stop172" />
		</linearGradient>
		<path
   style="fill:url(#SVGID_14_)"
   d="M 1590.4224,486.66534 C 1569.7375,424.14349 1534.2744,367.0358 1489.4937,318.70013 1436.7346,261.75293 1371.0321,218.48007 1301.4785,184.7802 1242.3054,156.10977 1180.5089,133.48283 1116.6451,119.42223 1002.256,94.237778 882.24274,94.684395 774.17615,117.42895 656.68976,142.15607 553.37262,192.87863 488.0332,256.29123 c 48.99268,-29.70043 117.33448,-53.78818 166.03113,-66.06305 225.97992,-56.96239 474.81507,4.73531 644.46987,167.0513 34.1094,32.63382 64.695,69.14941 89.4938,109.36984 101.21,164.15073 91.6341,370.51621 12.7255,492.22641 -58.6201,90.41687 -184.1494,175.23877 -301.2728,174.31727 179.6837,9.4059 347.2464,-66.1815 448.8568,-224.29987 82.4584,-128.31555 85.2747,-291.68231 42.0849,-422.22779 z"
   id="path175" />
	</g>
	<g
   id="g181">
		
	</g>
	<rect
   x="745.5"
   y="50.5"
   style="fill:none"
   width="50"
   height="50"
   id="rect183" />
</g>
<g
   id="Layer_3"
   transform="translate(-58.529629,-50.44751)">
</g>
<g
   id="Layer_4"
   transform="translate(-58.529629,-50.44751)">
</g>
<g
   id="Layer_5"
   transform="translate(-58.529629,-50.44751)">
</g>
</svg>
