<?xml version="1.0" encoding="UTF-8" standalone="no"?>
<!-- Created with Inkscape (http://www.inkscape.org/) -->

<svg
   xmlns:dc="http://purl.org/dc/elements/1.1/"
   xmlns:cc="http://creativecommons.org/ns#"
   xmlns:rdf="http://www.w3.org/1999/02/22-rdf-syntax-ns#"
   xmlns:svg="http://www.w3.org/2000/svg"
   xmlns="http://www.w3.org/2000/svg"
   xmlns:sodipodi="http://sodipodi.sourceforge.net/DTD/sodipodi-0.dtd"
   xmlns:inkscape="http://www.inkscape.org/namespaces/inkscape"
   width="1000"
   height="1000"
   viewBox="0 0 264.58333 264.58334"
   version="1.1"
   id="svg894"
   inkscape:version="0.92.2 (5c3e80d, 2017-08-06)"
   sodipodi:docname="USI Logo.svg">
  <defs
     id="defs888" />
  <sodipodi:namedview
     id="base"
     pagecolor="#ffffff"
     bordercolor="#666666"
     borderopacity="1.0"
     inkscape:pageopacity="0.0"
     inkscape:pageshadow="2"
     inkscape:zoom="0.24748737"
     inkscape:cx="-160.86305"
     inkscape:cy="288.92603"
     inkscape:document-units="mm"
     inkscape:current-layer="layer1"
     showgrid="false"
     units="px"
     inkscape:window-width="3840"
     inkscape:window-height="2093"
     inkscape:window-x="-9"
     inkscape:window-y="-9"
     inkscape:window-maximized="1" />
  <metadata
     id="metadata891">
    <rdf:RDF>
      <cc:Work
         rdf:about="">
        <dc:format>image/svg+xml</dc:format>
        <dc:type
           rdf:resource="http://purl.org/dc/dcmitype/StillImage" />
        <dc:title></dc:title>
      </cc:Work>
    </rdf:RDF>
  </metadata>
  <g
     inkscape:label="Ebene 1"
     inkscape:groupmode="layer"
     id="layer1"
     transform="translate(0,-32.41665)">
    <path
       inkscape:connector-curvature="0"
       id="path46"
       style="display:inline;fill:#000000;fill-opacity:1;fill-rule:nonzero;stroke:none;stroke-width:6.02187061"
       d="M 239.14658,86.746216 H 170.8164 V 72.673131 h 56.45502 C 203.19607,47.832881 169.48563,32.380892 132.16202,32.41691 59.098696,32.502259 -0.07230985,91.780633 6.6325509e-5,164.84395 0.03420615,200.68608 14.350196,233.16202 37.522205,256.96049 c -1.848667,-2.70984 -3.167485,-5.51595 -3.974377,-8.18978 -1.343398,-4.62474 -1.343398,-7.91274 -1.493615,-21.05842 v -62.87431 h 19.715702 v 64.81942 c 0,4.48016 -0.153628,8.80994 1.3434,12.84457 4.034634,10.15282 15.084645,11.35129 21.35953,11.35129 3.131298,0 11.050182,-0.15363 16.873228,-5.23311 5.823217,-5.22696 5.823217,-11.20056 5.823217,-20.01067 v -63.7715 h 19.86609 v 66.46325 c -0.15363,11.94755 -0.15363,21.80523 -11.35113,31.36197 -10.755211,9.40618 -24.641552,10.30337 -31.807654,10.30337 -6.425272,0 -12.69401,-0.74595 -18.673758,-2.83616 -2.456867,-0.84837 -4.690972,-1.891 -6.714434,-3.06523 22.852973,18.73401 52.083256,29.96479 83.938876,29.93475 73.06332,-0.0683 132.23432,-59.35758 132.15598,-132.4209 -0.0171,-29.10977 -9.47839,-56.00352 -25.43633,-77.832814 m -6.17844,70.486114 -8.44874,-12.01975 c 2.81227,-1.8427 11.58618,-7.58142 11.58618,-23.71415 0,-2.7037 -0.21679,-5.52194 -1.30073,-8.2258 -2.27029,-5.52211 -6.16649,-6.49765 -8.76794,-6.49765 -4.87174,0 -6.60604,3.35423 -7.58158,5.73889 -0.65036,1.7343 -0.7579,1.95109 -2.37852,8.87616 l -1.95108,9.20749 c -1.19148,4.87174 -1.7343,7.25043 -2.70387,9.63509 -1.40997,3.46245 -6.06407,12.88076 -18.73401,12.88076 -14.50666,0 -23.81657,-12.2304 -23.81657,-30.20583 0,-16.45774 8.11758,-25.333905 15.4822,-30.747613 l 8.76794,11.694573 c -3.7878,2.5953 -11.36939,7.57543 -11.36939,19.8118 0,7.68998 3.4686,14.39844 9.31589,14.39844 6.49167,0 7.79239,-7.14204 9.09312,-14.07326 l 1.72815,-7.90062 c 2.16788,-10.29142 6.38925,-24.798084 22.73861,-24.798084 17.54168,0 24.5813,16.240964 24.5813,32.481924 0,4.22137 -0.43358,8.98472 -1.7343,13.63968 -1.51752,5.08835 -5.19693,14.07905 -14.50666,19.81795" />
  </g>
</svg>
