<?xml version="1.0" encoding="utf-8"?>
<!-- Generator: Adobe Illustrator 19.0.0, SVG Export Plug-In . SVG Version: 6.00 Build 0)  -->
<svg version="1.1" id="Layer_1" xmlns="http://www.w3.org/2000/svg" xmlns:xlink="http://www.w3.org/1999/xlink" x="0px" y="0px"
	 viewBox="0 0 96 96" style="enable-background:new 0 0 96 96;" xml:space="preserve">
<style type="text/css">
	.st0{fill:#95A5A6;}
	.st1{fill:#BDC3C7;}
	.st2{fill:#2C3E50;}
	.st3{fill:#34495E;}
</style>
<g id="XMLID_1_">
	<path id="XMLID_3_" class="st0" d="M33.2,18.5c-1.6,0-3,1.2-3,3v3v3v3v3v3v3v3v3v8.9v3v3v3v3v3v3v3v3c0,1.5,1.3,3,3,3H48h8.9h3h3
		c1.6,0,3-1.5,3-3v-3v-3v-3v-3v-3v-3v-3v-3V33.2v-3v-3v-3v-3c0-1.8-1.3-3-3-3H48h-8.9h-3H33.2z"/>
	<path id="XMLID_4_" class="st1" d="M33.2,15.5c-1.6,0-3,1.2-3,3v3v3v3v3v3v3v3v3V51v3v3v3v3v3v3v3v3c0,1.5,1.3,3,3,3H48h8.9h3h3
		c1.6,0,3-1.5,3-3v-3v-3v-3v-3v-3v-3v-3v-3V30.3v-3v-3v-3v-3c0-1.8-1.3-3-3-3H48h-8.9h-3H33.2z"/>
	<circle id="XMLID_5_" class="st0" cx="48" cy="73.1" r="3"/>
	<rect id="XMLID_6_" x="33.2" y="24.4" class="st2" width="29.5" height="44.3"/>
	<polygon id="XMLID_7_" class="st3" points="33.2,21.4 33.2,56.9 62.8,32.3 62.8,21.4 	"/>
	<rect id="XMLID_8_" x="39.1" y="15.5" class="st0" width="17.7" height="3"/>
</g>
</svg>
