<?xml version="1.0" encoding="UTF-8" standalone="no"?>
<svg
   fill="none"
   viewBox="0 0 87.510002 87.510002"
   version="1.1"
   id="svg14"
   sodipodi:docname="google-meet.svg"
   width="87.510002"
   height="87.510002"
   inkscape:version="1.1.1 (3bf5ae0d25, 2021-09-20)"
   xmlns:inkscape="http://www.inkscape.org/namespaces/inkscape"
   xmlns:sodipodi="http://sodipodi.sourceforge.net/DTD/sodipodi-0.dtd"
   xmlns="http://www.w3.org/2000/svg"
   xmlns:svg="http://www.w3.org/2000/svg">
  <defs
     id="defs18" />
  <sodipodi:namedview
     id="namedview16"
     pagecolor="#ffffff"
     bordercolor="#666666"
     borderopacity="1.0"
     inkscape:pageshadow="2"
     inkscape:pageopacity="0.0"
     inkscape:pagecheckerboard="0"
     showgrid="false"
     inkscape:zoom="5.2847222"
     inkscape:cx="45.886991"
     inkscape:cy="66.228646"
     inkscape:window-width="1920"
     inkscape:window-height="1006"
     inkscape:window-x="0"
     inkscape:window-y="0"
     inkscape:window-maximized="1"
     inkscape:current-layer="svg14" />
  <g
     id="g26"
     transform="translate(0,1.7550011)">
    <path
       fill="#00832d"
       d="m 49.5,42 8.53,9.75 11.47,7.33 2,-17.02 -2,-16.64 -11.69,6.44 z"
       id="path2" />
    <path
       fill="#0066da"
       d="M 0,57.5 V 72 c 0,3.315 2.685,6 6,6 h 14.5 l 3,-10.96 -3,-9.54 -9.95,-3 z"
       id="path4" />
    <path
       fill="#e94235"
       d="M 20.5,6 0,26.5 l 10.55,3 9.95,-3 2.95,-9.41 z"
       id="path6" />
    <path
       fill="#2684fc"
       d="M 20.5,26.5 H 0 v 31 h 20.5 z"
       id="path8" />
    <path
       fill="#00ac47"
       d="M 82.6,14.68 69.5,25.42 v 33.66 l 13.16,10.79 c 1.97,1.54 4.85,0.135 4.85,-2.37 V 17 c 0,-2.535 -2.945,-3.925 -4.91,-2.32 z M 49.5,42 v 15.5 h -29 V 78 h 43 c 3.315,0 6,-2.685 6,-6 V 59.08 Z"
       id="path10" />
    <path
       fill="#ffba00"
       d="m 63.5,6 h -43 v 20.5 h 29 V 42 l 20,-16.57 V 12 c 0,-3.315 -2.685,-6 -6,-6 z"
       id="path12" />
  </g>
</svg>
