<?xml version="1.0" encoding="UTF-8" standalone="no"?>
<!-- Generator: Adobe Illustrator 15.1.0, SVG Export Plug-In . SVG Version: 6.00 Build 0)  -->

<svg
   version="1.1"
   id="Layer_1"
   x="0px"
   y="0px"
   width="64px"
   height="64px"
   viewBox="0 0 64 64"
   enable-background="new 0 0 64 64"
   xml:space="preserve"
   sodipodi:docname="pcloud.svg"
   inkscape:version="1.1.1 (3bf5ae0d25, 2021-09-20)"
   xmlns:inkscape="http://www.inkscape.org/namespaces/inkscape"
   xmlns:sodipodi="http://sodipodi.sourceforge.net/DTD/sodipodi-0.dtd"
   xmlns="http://www.w3.org/2000/svg"
   xmlns:svg="http://www.w3.org/2000/svg"><defs
   id="defs89" /><sodipodi:namedview
   id="namedview87"
   pagecolor="#505050"
   bordercolor="#ffffff"
   borderopacity="1"
   inkscape:pageshadow="0"
   inkscape:pageopacity="0"
   inkscape:pagecheckerboard="1"
   showgrid="false"
   inkscape:zoom="12.125"
   inkscape:cx="16.206186"
   inkscape:cy="30.268041"
   inkscape:window-width="1920"
   inkscape:window-height="1006"
   inkscape:window-x="0"
   inkscape:window-y="0"
   inkscape:window-maximized="1"
   inkscape:current-layer="g84" />
<g
   id="g84">
	<path
   fill="#1ebcc5"
   d="m 63.457,42.101 c 0,-3.183 -1.476,-6.018 -3.774,-7.869 -0.91,1.838 -2.474,3.286 -4.382,4.072 2.723,-1.408 4.588,-4.243 4.588,-7.518 0,-4.675 -3.784,-8.415 -8.459,-8.415 -0.355,0 -0.689,0.026 -1.034,0.068 1.17,2.559 1.818,5.349 1.818,8.347 0,0.193 -0.01,0.384 -0.017,0.576 -0.336,-10.865 -9.243,-19.571 -20.192,-19.571 -10.916,0 -19.806,8.657 -20.19,19.481 -0.004,-0.163 -0.019,-0.323 -0.019,-0.486 0,-2.992 0.667,-5.822 1.833,-8.376 -7.376,0.925 -13.086,7.207 -13.086,14.834 0,8.265 6.7,14.965 14.965,14.965 h 38.054 v -0.017 c 5.482,-0.111 9.895,-4.582 9.895,-10.091"
   id="path66" />
	<path
   fill="#ffffff"
   d="m 31.839,46.1425 c -7.824,0 -14.167,-6.343 -14.167,-14.167 0,-7.823 6.343,-14.167 14.167,-14.167 7.825,0 14.167,6.343 14.167,14.167 0,7.824 -6.342,14.167 -14.167,14.167 m 0.007,-30.408 c -8.984,0 -16.266,7.282 -16.266,16.265 0,8.983 7.282,16.266 16.266,16.266 8.984,0 16.265,-7.283 16.265,-16.266 0,-8.983 -7.281,-16.265 -16.265,-16.265"
   id="path68" />
	<path
   fill="#ffffff"
   d="M 34.338,31.3165 H 34.32 29.895 29.877 v -3.556 h 0.018 4.425 0.018 c 0.982,0 1.778,0.796 1.778,1.777 0,0.982 -0.796,1.779 -1.778,1.779 m -6.727,-7.797 c -1.261,0 -2.284,1.022 -2.284,2.284 v 12.392 c 0,1.261 1.023,2.285 2.284,2.285 1.263,0 2.284,-1.024 2.284,-2.285 v -2.636 h 4.425 v -0.009 c 3.322,0 6.017,-2.693 6.017,-6.015 0,-3.323 -2.694,-6.016 -6.017,-6.016"
   id="path70" />
	
	
	
	
	
	
</g>
</svg>
